# xmcd
#
# Track frame offsets: 
#        150
#        21166
#        37351
#        67516
#        89211
#        104671
#        128233
#        151618
#
# Disc length: 2383 seconds
#
# Revision: 0
# Processed by: cddbd v1.5.2PL0 Copyright (c) Steve Scherf et al.
# Submitted via: ExactAudioCopy v0.95b4
#
DISCID=67094d08
DTITLE=Greg Kihn  - Next of Kihn   FLAC
DYEAR=1900
DGENRE=
TTITLE0=Cold Hard Cash
TTITLE1=Museum
TTITLE2=Remember
TTITLE3=Chinatown
TTITLE4=Sorry
TTITLE5=Everybody Else
TTITLE6=Understander
TTITLE7=Secret Meetings
EXTD=
EXTT0=
EXTT1=
EXTT2=
EXTT3=
EXTT4=
EXTT5=
EXTT6=
EXTT7=
PLAYORDER=
